<svg width="30" height="42" viewBox="0 0 30 42" fill="none" xmlns="http://www.w3.org/2000/svg">
<path d="M18.8582 3.36935C18.1577 2.46289 17.5477 1.73662 17.0449 1.21075C16.3302 0.463284 15.7389 0 15.0001 0C14.2613 0 13.67 0.463284 12.9553 1.21065C12.4525 1.73652 11.8424 2.46279 11.142 3.36935C9.66338 5.28279 8.00488 7.70706 6.47194 10.1953C4.05483 14.1189 0 21.397 0 26.0588C0 34.3299 6.72896 41.0588 15 41.0588C23.271 41.0588 30 34.3299 30 26.0588C30 21.3971 25.9452 14.1189 23.5281 10.1953C21.9952 7.70706 20.3367 5.28289 18.8582 3.36935Z" fill="#9A191F"/>
</svg>
